<?xml version="1.0" encoding="UTF-8" standalone="no"?>
<svg
   xmlns:dc="http://purl.org/dc/elements/1.1/"
   xmlns:cc="http://creativecommons.org/ns#"
   xmlns:rdf="http://www.w3.org/1999/02/22-rdf-syntax-ns#"
   xmlns:svg="http://www.w3.org/2000/svg"
   xmlns="http://www.w3.org/2000/svg"
   xmlns:sodipodi="http://sodipodi.sourceforge.net/DTD/sodipodi-0.dtd"
   xmlns:inkscape="http://www.inkscape.org/namespaces/inkscape"
   id="Camada_1"
   data-name="Camada 1"
   viewBox="0 0 87.839997 30.537464"
   version="1.1"
   sodipodi:docname="logo-prati-branco.svg"
   width="87.839996"
   height="30.537464"
   inkscape:version="0.92.3 (2405546, 2018-03-11)">
  <metadata
     id="metadata51">
    <rdf:RDF>
      <cc:Work
         rdf:about="">
        <dc:format>image/svg+xml</dc:format>
        <dc:type
           rdf:resource="http://purl.org/dc/dcmitype/StillImage" />
      </cc:Work>
    </rdf:RDF>
  </metadata>
  <sodipodi:namedview
     pagecolor="#ffffff"
     bordercolor="#666666"
     borderopacity="1"
     objecttolerance="10"
     gridtolerance="10"
     guidetolerance="10"
     inkscape:pageopacity="0"
     inkscape:pageshadow="2"
     inkscape:window-width="1366"
     inkscape:window-height="746"
     id="namedview49"
     showgrid="false"
     inkscape:zoom="3.6704337"
     inkscape:cx="51.784999"
     inkscape:cy="15.277463"
     inkscape:window-x="1912"
     inkscape:window-y="-8"
     inkscape:window-maximized="1"
     inkscape:current-layer="Camada_1" />
  <defs
     id="defs4">
    <style
       id="style2">.cls-1,.cls-2{fill:#fff;}.cls-1{fill-rule:evenodd;}</style>
  </defs>
  <title
     id="title6">Proposta Site - 9 - Outubro</title>
  <g
     id="g4582"
     transform="translate(0.02)">
    <path
       id="path8"
       d="m 52.75,29.89 v -6.16 h -1 v 2.39 a 1.56,1.56 0 0 0 -1.2,-0.55 c -1.4,0 -1.89,1.34 -1.89,2.48 0,1.14 0.49,2.47 1.9,2.47 a 1.7,1.7 0 0 0 1.28,-0.62 1,1 0 0 0 0.85,0.54 h 0.42 0.11 V 30.2 H 53.11 A 0.33,0.33 0 0 1 52.75,29.89 Z M 51.65,29.7 A 1,1 0 0 1 51,30 c -1.24,0 -1.3,-1.66 -1.3,-2 0,-0.34 0.06,-2 1.3,-2 a 1.11,1.11 0 0 1 0.67,0.34 l 0.06,0.06 v 3 a 0.76,0.76 0 0 0 0,0.16 z"
       class="cls-1"
       inkscape:connector-curvature="0"
       style="fill:#ffffff;fill-rule:evenodd" />
    <path
       id="path10"
       d="M 55.48,25.57 A 2.49,2.49 0 1 0 57.72,28 2.35,2.35 0 0 0 55.48,25.57 Z m 0,4.67 c -0.9,0 -1.1,-1.62 -1.1,-2.2 0,-0.58 0.2,-2.18 1.1,-2.18 0.9,0 1.12,1.62 1.12,2.14 0,0.52 -0.2,2.24 -1.12,2.24 z"
       class="cls-1"
       inkscape:connector-curvature="0"
       style="fill:#ffffff;fill-rule:evenodd" />
    <path
       id="path12"
       d="m 60.52,25.57 a 1.5,1.5 0 0 0 -1.31,0.79 1,1 0 0 0 -0.92,-0.71 h -0.42 -0.1 v 0.22 h 0.1 a 0.33,0.33 0 0 1 0.32,0.34 v 4.21 h 1.06 v -3.25 0 -0.1 a 0.86,0.86 0 1 1 1.72,0 v 3.36 H 62 v -3.36 a 1.5,1.5 0 0 0 -1.48,-1.5 z"
       class="cls-1"
       inkscape:connector-curvature="0"
       style="fill:#ffffff;fill-rule:evenodd" />
    <path
       id="path14"
       d="m 66.39,29.87 v -2.75 a 1.6,1.6 0 0 0 -1.7,-1.56 c -1.07,0 -1.7,0.4 -1.92,1.19 v 0.12 h 1 v -0.1 c 0,-0.61 0.35,-0.91 0.9,-0.91 0.55,0 0.65,0.66 0.65,1 v 0.8 a 1.74,1.74 0 0 0 -1,-0.26 c -0.87,0 -1.8,0.41 -1.8,1.55 0,1 0.68,1.55 1.84,1.55 a 2.28,2.28 0 0 0 1.19,-0.31 v 0 a 0.89,0.89 0 0 0 0.65,0.26 h 0.53 V 30.23 H 66.62 A 0.33,0.33 0 0 1 66.39,29.87 Z M 65.48,30 A 1.38,1.38 0 0 1 64.83,30.15 1.19,1.19 0 0 1 63.6,29 a 1.15,1.15 0 0 1 1.21,-1.18 1,1 0 0 1 0.49,0.14 v 0 1.54 a 1,1 0 0 0 0.15,0.51 z"
       class="cls-1"
       inkscape:connector-curvature="0"
       style="fill:#ffffff;fill-rule:evenodd" />
    <path
       id="path16"
       d="m 71.42,30.19 a 0.32,0.32 0 0 1 -0.3,-0.32 V 23.72 H 70.05 V 26.1 A 1.53,1.53 0 0 0 68.87,25.56 C 67.46,25.56 67,26.9 67,28 c 0,1.1 0.5,2.47 1.9,2.47 a 1.72,1.72 0 0 0 1.29,-0.62 0.92,0.92 0 0 0 0.85,0.53 h 0.41 0.11 V 30.17 Z M 70,29.68 a 1,1 0 0 1 -0.69,0.35 C 68.09,30 68,28.38 68,28 c 0,-0.38 0.06,-2 1.3,-2 a 1,1 0 0 1 0.67,0.36 v 0.05 3 c 0,0.06 0,0.11 0,0.16 z"
       class="cls-1"
       inkscape:connector-curvature="0"
       style="fill:#ffffff;fill-rule:evenodd" />
    <path
       id="path18"
       d="m 75.84,29.84 v -4.2 H 74.77 V 29 A 0.84,0.84 0 0 1 73.93,29.86 0.75,0.75 0 0 1 73.15,29 v -2.4 a 1,1 0 0 0 -1,-1 h -0.42 -0.1 v 0.2 h 0.1 a 0.33,0.33 0 0 1 0.31,0.35 V 29 a 1.44,1.44 0 0 0 1.42,1.5 1.51,1.51 0 0 0 1.31,-0.78 0.94,0.94 0 0 0 0.91,0.69 h 0.42 0.11 V 30.19 H 76.1 a 0.32,0.32 0 0 1 -0.26,-0.35 z"
       class="cls-1"
       inkscape:connector-curvature="0"
       style="fill:#ffffff;fill-rule:evenodd" />
    <path
       id="path20"
       d="m 80.72,29.42 a 0.88,0.88 0 0 1 -1,0.62 H 78 l 2.37,-3.82 a 0.65,0.65 0 0 1 0.42,-0.35 l 0.08,-0.05 V 25.64 H 77 l -0.15,1.06 h 0.23 v -0.06 a 0.89,0.89 0 0 1 1,-0.62 h 1.28 l -2.69,4.4 h 4.18 L 81,29.37 h -0.22 z"
       class="cls-1"
       inkscape:connector-curvature="0"
       style="fill:#ffffff;fill-rule:evenodd" />
    <path
       id="path22"
       d="m 85.3,29.42 a 0.88,0.88 0 0 1 -1,0.62 h -1.74 l 2.37,-3.82 a 0.65,0.65 0 0 1 0.42,-0.35 l 0.08,-0.05 v -0.18 h -3.87 l -0.15,1.05 h 0.21 v -0.06 a 0.87,0.87 0 0 1 1,-0.61 h 1.29 l -2.69,4.4 h 4.19 l 0.14,-1 h -0.23 z"
       class="cls-1"
       inkscape:connector-curvature="0"
       style="fill:#ffffff;fill-rule:evenodd" />
    <path
       id="path24"
       d="m 86.94,25.22 a 0.62,0.62 0 1 0 -0.61,-0.61 0.61,0.61 0 0 0 0.61,0.61 z"
       class="cls-1"
       inkscape:connector-curvature="0"
       style="fill:#ffffff;fill-rule:evenodd" />
    <path
       id="path26"
       d="M 86.52,25.64 H 86.1 85.99 v 0.21 h 0.11 a 0.33,0.33 0 0 1 0.31,0.34 v 4.2 h 1 v -3.8 a 0.94,0.94 0 0 0 -0.89,-0.95 z"
       class="cls-1"
       inkscape:connector-curvature="0"
       style="fill:#ffffff;fill-rule:evenodd" />
    <path
       id="path28"
       d="m 18.91,1.9 v 15.55 a 6.58,6.58 0 1 1 -13.16,0 V 1.9 a 12.35,12.35 0 1 0 13.16,0 z"
       class="cls-1"
       inkscape:connector-curvature="0"
       style="fill:#ffffff;fill-rule:evenodd" />
    <path
       id="path30"
       d="m 10.39,11.64 a 3.91,3.91 0 1 0 -3.91,-3.9 3.91,3.91 0 0 0 3.91,3.9 z"
       class="cls-1"
       inkscape:connector-curvature="0"
       style="fill:#ffffff;fill-rule:evenodd" />
    <path
       id="path32"
       d="M 10.39,17.88 A 3.92,3.92 0 1 0 14.31,14 3.93,3.93 0 0 0 10.39,17.88 Z"
       class="cls-1"
       inkscape:connector-curvature="0"
       style="fill:#ffffff;fill-rule:evenodd" />
    <path
       id="path34"
       d="m 47.64,13.32 c 0,-3.77 -1.65,-8.17 -6.27,-8.17 a 5.21,5.21 0 0 0 -4.14,2 3.15,3.15 0 0 0 -2.8,-1.73 H 33 L 32.66,5.51 V 6.2 H 33 a 1,1 0 0 1 1.06,1 v 23.24 h 3.48 V 19.82 a 4.46,4.46 0 0 0 3.8,1.67 c 4.66,0 6.3,-4.41 6.3,-8.17 z M 40,19.91 a 3,3 0 0 1 -2.18,-1 L 37.61,18.68 V 8.57 A 3.34,3.34 0 0 0 37.51,8 L 37.6,7.88 a 3.76,3.76 0 0 1 2.26,-1.14 c 4.06,0 4.27,5.49 4.27,6.59 0,3.02 -1.13,6.58 -4.13,6.58 z"
       class="cls-1"
       inkscape:connector-curvature="0"
       style="fill:#ffffff;fill-rule:evenodd" />
    <path
       id="path36"
       d="m 49.49,7.25 v 14 H 53 V 10.73 l 0.09,-0.54 c 0.15,-0.76 0.67,-2.51 2.55,-2.51 a 1.33,1.33 0 0 1 1,0.43 L 57,8.6 58,5.31 57.67,5.21 a 3.53,3.53 0 0 0 -1,-0.12 4.11,4.11 0 0 0 -3.77,2.74 3.16,3.16 0 0 0 -3,-2.41 H 48.45 L 48.1,5.51 V 6.2 h 0.35 a 1,1 0 0 1 1.04,1.05 z"
       class="cls-1"
       inkscape:connector-curvature="0"
       style="fill:#ffffff;fill-rule:evenodd" />
    <path
       id="path38"
       d="m 64,11.24 c -2.9,0 -6,1.35 -6,5.12 0,3.21 2.26,5.13 6.07,5.13 a 7.3,7.3 0 0 0 4,-1 l 0.11,-0.1 a 3.14,3.14 0 0 0 2.16,0.87 h 1.4 l 0.34,-0.08 v -0.7 h -0.34 a 1.07,1.07 0 0 1 -1,-1.05 V 10.3 c 0,-3 -2.43,-5.15 -5.62,-5.15 -3.53,0 -5.6,1.26 -6.33,3.89 L 58.67,9.46 H 62 V 9.15 c 0.14,-2 1.15,-3 3,-3 1.5,0 2.13,2.18 2.13,3.35 v 2.65 A 5.35,5.35 0 0 0 64,11.24 Z m 3.67,8.52 v 0 a 4.55,4.55 0 0 1 -2.13,0.5 3.9,3.9 0 0 1 -4.07,-3.91 3.81,3.81 0 0 1 4,-3.9 3.16,3.16 0 0 1 1.61,0.45 l 0.14,0.06 v 5.1 a 3.16,3.16 0 0 0 0.43,1.7 z"
       class="cls-1"
       inkscape:connector-curvature="0"
       style="fill:#ffffff;fill-rule:evenodd" />
    <path
       id="path40"
       d="m 85.82,4 a 2,2 0 1 0 -2,-2 2,2 0 0 0 2,2 z"
       class="cls-1"
       inkscape:connector-curvature="0"
       style="fill:#ffffff;fill-rule:evenodd" />
    <path
       id="path42"
       d="m 71.63,8.71 c 0.71,-1.5 1.35,-2 2.9,-2 v 10.8 a 3.7,3.7 0 0 0 3.69,3.7 h 2 l 0.34,-0.08 v -0.7 H 80.22 A 2.17,2.17 0 0 1 78,18.26 V 6.67 h 3.41 V 5.42 H 78 V 1 h -3.47 v 4.42 h -3.26 l -0.49,3.49 h 0.75 z"
       class="cls-1"
       inkscape:connector-curvature="0"
       style="fill:#ffffff;fill-rule:evenodd" />
    <path
       id="path44"
       d="m 84.42,5.42 h -1.74 v 1.24 h 0.49 a 1,1 0 0 1 0.9,1 v 13.55 h 3.48 V 8.57 A 3.1,3.1 0 0 0 84.42,5.42 Z"
       class="cls-1"
       inkscape:connector-curvature="0"
       style="fill:#ffffff;fill-rule:evenodd" />
  </g>
</svg>
